ply
format ascii 1.0
comment Created by Blender 2.79 (sub 0) - www.blender.org, source file: ''
element vertex 64
property float x
property float y
property float z
property float nx
property float ny
property float nz
element face 51
property list uchar uint vertex_indices
end_header
0.385432 0.490113 -0.266005 0.583514 0.605731 -0.540880
0.385432 -0.562058 -0.385432 0.571612 -0.546464 -0.612018
-0.385432 -0.562058 -0.385432 -0.571612 -0.546464 -0.612018
-0.385432 0.490113 -0.266005 -0.583514 0.605731 -0.540880
0.385432 0.490113 0.266005 0.583514 0.605731 0.540880
-0.385432 0.490113 0.266005 -0.583514 0.605731 0.540880
-0.385432 -0.562057 0.385432 -0.571612 -0.546464 0.612018
0.385432 -0.562058 0.385432 0.571612 -0.546464 0.612018
0.001421 -1.426686 -0.219044 0.000610 -0.620777 -0.783959
0.000000 -0.574458 -0.319447 -0.000671 -0.116977 -0.993103
0.319447 -0.574458 -0.000000 0.993103 -0.116977 0.000671
0.219044 -1.426686 -0.001421 0.783959 -0.620777 -0.000610
-0.219044 -1.426686 0.001421 -0.783959 -0.620777 0.000610
-0.001421 -1.426686 0.219044 -0.000610 -0.620777 0.783959
0.000000 -0.574458 0.319447 0.000671 -0.116977 0.993103
-0.319447 -0.574458 0.000000 -0.993103 -0.116977 -0.000671
-0.599412 -1.175287 -0.090677 0.000610 -0.620777 -0.783959
-0.600000 -0.822495 -0.132240 -0.000671 -0.116977 -0.993103
-0.467760 -0.822495 0.000000 0.993103 -0.116977 0.000671
-0.509323 -1.175287 -0.000588 0.783959 -0.620777 -0.000610
-0.690677 -1.175287 0.000588 -0.783959 -0.620777 0.000610
-0.600589 -1.175287 0.090677 -0.000610 -0.620777 0.783959
-0.600000 -0.822495 0.132240 0.000671 -0.116977 0.993103
-0.732240 -0.822495 0.000000 -0.993103 -0.116977 -0.000671
0.600589 -1.175287 -0.090677 0.000610 -0.620777 -0.783959
0.600000 -0.822495 -0.132240 -0.000671 -0.116977 -0.993103
0.732240 -0.822495 -0.000000 0.993103 -0.116977 0.000671
0.690677 -1.175287 -0.000589 0.783959 -0.620777 -0.000610
0.509323 -1.175287 0.000588 -0.783959 -0.620777 0.000610
0.599412 -1.175287 0.090677 -0.000610 -0.620777 0.783959
0.600000 -0.822495 0.132240 0.000671 -0.116977 0.993103
0.467760 -0.822495 -0.000000 -0.993103 -0.116977 -0.000671
-0.760019 0.287743 -0.162413 -0.152470 0.000000 -0.988281
-0.760019 -0.851199 -0.162413 -0.107822 -0.707083 -0.698813
-1.093980 -0.851199 -0.110885 -0.615192 -0.585803 -0.527543
-1.093980 0.287744 -0.110885 -0.779534 0.099582 -0.618336
-0.760019 0.287743 0.162413 -0.152470 0.000000 0.988281
-1.093980 0.287743 0.110885 -0.779534 0.099582 0.618336
-1.093980 -0.851199 0.110885 -0.615192 -0.585803 0.527543
-0.760019 -0.851200 0.162413 -0.107822 -0.707083 0.698813
-0.426058 0.287743 -0.213941 0.650960 0.000000 -0.759087
-0.426058 0.287743 0.213941 0.650960 0.000000 0.759087
-0.426058 -0.851200 0.213941 0.534959 -0.569720 0.623859
-0.426058 -0.851199 -0.213941 0.534959 -0.569720 -0.623859
-0.760019 1.426686 -0.162413 -0.525620 0.647145 -0.552141
-0.426058 1.426686 -0.213941 0.534959 0.569720 -0.623859
-0.426058 1.426685 0.213941 0.534959 0.569720 0.623859
-0.760019 1.426685 0.162413 -0.525620 0.647145 0.552141
0.760019 0.287743 -0.162413 0.152470 0.000000 -0.988281
1.093980 0.287744 -0.110885 0.779534 0.099582 -0.618336
1.093980 -0.851199 -0.110885 0.615192 -0.585803 -0.527543
0.760019 -0.851199 -0.162413 0.107822 -0.707083 -0.698813
0.760019 0.287743 0.162413 0.152470 0.000000 0.988281
0.760019 -0.851200 0.162413 0.107822 -0.707083 0.698813
1.093980 -0.851199 0.110885 0.615192 -0.585803 0.527543
1.093980 0.287743 0.110885 0.779534 0.099582 0.618336
0.426058 0.287743 -0.213941 -0.650960 0.000000 -0.759087
0.426058 -0.851199 -0.213941 -0.534959 -0.569720 -0.623859
0.426058 -0.851200 0.213941 -0.534959 -0.569720 0.623859
0.426058 0.287743 0.213941 -0.650960 0.000000 0.759087
0.760019 1.426686 -0.162413 0.525620 0.647145 -0.552141
0.426058 1.426686 -0.213941 -0.534959 0.569720 -0.623859
0.426058 1.426685 0.213941 -0.534959 0.569720 0.623859
0.760019 1.426685 0.162413 0.525620 0.647145 0.552141
4 0 1 2 3
4 4 5 6 7
4 0 4 7 1
4 1 7 6 2
4 2 6 5 3
4 4 0 3 5
4 8 9 10 11
4 12 13 14 15
4 8 12 15 9
4 10 14 13 11
4 12 8 11 13
4 16 17 18 19
4 20 21 22 23
4 16 20 23 17
4 18 22 21 19
4 20 16 19 21
4 24 25 26 27
4 28 29 30 31
4 24 28 31 25
4 26 30 29 27
4 28 24 27 29
4 32 33 34 35
4 36 37 38 39
4 40 41 42 43
4 33 39 38 34
3 35 44 32
4 34 38 37 35
4 45 46 41 40
3 47 37 36
4 44 35 37 47
4 45 40 32 44
4 46 47 36 41
4 46 45 44 47
4 43 42 39 33
4 41 36 39 42
4 40 43 33 32
4 48 49 50 51
4 52 53 54 55
4 56 57 58 59
4 51 50 54 53
3 49 48 60
4 50 49 55 54
4 61 56 59 62
3 63 52 55
4 60 63 55 49
4 61 60 48 56
4 62 59 52 63
4 62 63 60 61
4 57 51 53 58
4 59 58 53 52
4 56 48 51 57
