ply
format ascii 1.0
comment Created by Blender 2.79 (sub 0) - www.blender.org, source file: ''
element vertex 130
property float x
property float y
property float z
property float nx
property float ny
property float nz
element face 51
property list uchar uint vertex_indices
end_header
-0.385432 -0.266005 0.490113 0.000000 -0.993591 0.112766
-0.385432 -0.385432 -0.562058 0.000000 -0.993591 0.112766
0.385432 -0.385432 -0.562058 0.000000 -0.993591 0.112766
0.385432 -0.266005 0.490113 0.000000 -0.993591 0.112766
-0.385432 0.266005 0.230312 0.000000 0.806207 0.591601
0.385432 0.266005 0.230312 0.000000 0.806207 0.591601
0.385432 0.385432 -0.562057 0.000000 0.988830 0.149022
-0.385432 0.385432 -0.562058 0.000000 0.988830 0.149022
-0.385432 -0.266005 0.490113 -0.999969 0.000000 0.000000
-0.385432 0.266005 0.230312 -1.000000 0.000000 0.000000
-0.385432 0.385432 -0.562058 -1.000000 0.000000 0.000000
-0.385432 -0.385432 -0.562058 -1.000000 0.000000 0.000000
-0.385432 -0.385432 -0.562058 0.000000 0.000000 -1.000000
-0.385432 0.385432 -0.562058 0.000000 0.000000 -1.000000
0.385432 0.385432 -0.562057 0.000000 0.000000 -1.000000
0.385432 -0.385432 -0.562058 0.000000 0.000000 -1.000000
0.385432 -0.385432 -0.562058 1.000000 0.000000 0.000000
0.385432 0.385432 -0.562057 1.000000 0.000000 0.000000
0.385432 0.266005 0.230312 1.000000 0.000000 0.000000
0.385432 -0.266005 0.490113 0.999969 0.000000 0.000000
-0.385432 -0.266005 0.490113 0.000000 0.438795 0.898556
0.385432 -0.266005 0.490113 0.000000 0.438795 0.898556
-0.001421 -0.219044 -1.426686 -0.000793 -0.993103 -0.116977
0.000000 -0.319447 -0.574458 0.000671 -0.993103 -0.116977
-0.319447 0.000000 -0.574458 -0.993103 0.000671 -0.116977
-0.219044 -0.001421 -1.426686 -0.993103 -0.000793 -0.116977
0.219044 0.001421 -1.426686 0.993103 0.000793 -0.116977
0.001421 0.219044 -1.426686 0.000793 0.993103 -0.116977
0.000000 0.319447 -0.574458 -0.000671 0.993103 -0.116977
0.319447 0.000000 -0.574458 0.993103 -0.000671 -0.116977
0.219044 0.001421 -1.426686 0.000000 0.000000 -1.000000
-0.001421 -0.219044 -1.426686 0.000000 0.000000 -1.000000
-0.219044 -0.001421 -1.426686 0.000000 0.000000 -1.000000
0.001421 0.219044 -1.426686 0.000000 0.000000 -1.000000
0.599412 -0.090677 -1.175287 -0.000793 -0.993103 -0.116977
0.600000 -0.132240 -0.822495 0.000671 -0.993103 -0.116977
0.467760 0.000000 -0.822495 -0.993103 0.000671 -0.116977
0.509323 -0.000588 -1.175287 -0.993103 -0.000793 -0.116977
0.690677 0.000588 -1.175287 0.993103 0.000793 -0.116977
0.600589 0.090677 -1.175287 0.000793 0.993103 -0.116977
0.600000 0.132240 -0.822495 -0.000671 0.993103 -0.116977
0.732240 0.000000 -0.822495 0.993103 -0.000671 -0.116977
0.690677 0.000588 -1.175287 0.000000 0.000000 -1.000000
0.599412 -0.090677 -1.175287 0.000000 0.000000 -1.000000
0.509323 -0.000588 -1.175287 0.000000 0.000000 -0.999969
0.600589 0.090677 -1.175287 0.000000 0.000000 -1.000000
-0.600589 -0.090677 -1.175287 -0.000793 -0.993103 -0.116977
-0.600000 -0.132240 -0.822495 0.000671 -0.993103 -0.116977
-0.732240 0.000000 -0.822495 -0.993103 0.000671 -0.116977
-0.690677 -0.000589 -1.175287 -0.993103 -0.000793 -0.116977
-0.509323 0.000588 -1.175287 0.993103 0.000793 -0.116977
-0.599412 0.090677 -1.175287 0.000793 0.993103 -0.116977
-0.600000 0.132240 -0.822495 -0.000671 0.993103 -0.116977
-0.467760 0.000000 -0.822495 0.993103 -0.000671 -0.116977
-0.509323 0.000588 -1.175287 0.000000 0.000000 -0.999969
-0.600589 -0.090677 -1.175287 0.000000 0.000000 -1.000000
-0.690677 -0.000589 -1.175287 0.000000 0.000000 -1.000000
-0.599412 0.090677 -1.175287 0.000000 0.000000 -1.000000
0.760019 -0.162413 0.287743 0.152470 -0.988281 0.000000
0.760019 -0.162413 -0.851199 0.152470 -0.988281 0.000000
1.093980 -0.110885 -0.851199 0.152470 -0.988281 0.000000
1.093980 -0.110885 0.287744 0.152470 -0.988281 0.000000
0.760019 0.120860 0.287743 0.331034 0.943602 0.000000
1.093980 0.003695 0.287743 0.331034 0.943602 0.000000
1.093980 0.003695 -0.851199 0.331034 0.943602 0.000000
0.760019 0.120860 -0.851200 0.331034 0.943602 0.000000
0.426058 -0.213941 0.287743 -1.000000 0.000000 0.000000
0.426058 0.238026 0.287743 -1.000000 0.000000 0.000000
0.426058 0.238026 -0.851200 -1.000000 0.000000 0.000000
0.426058 -0.213941 -0.851199 -1.000000 0.000000 0.000000
0.760019 -0.162413 -0.851199 0.000000 0.000000 -1.000000
0.760019 0.120860 -0.851200 0.000000 0.000000 -1.000000
1.093980 0.003695 -0.851199 0.000000 0.000000 -0.999969
1.093980 -0.110885 -0.851199 0.000000 0.000000 -1.000000
0.760019 -0.162413 1.426686 0.152470 -0.988281 0.000000
1.093980 -0.110885 -0.851199 1.000000 0.000000 0.000000
1.093980 0.003695 -0.851199 1.000000 0.000000 0.000000
1.093980 0.003695 0.287743 0.989196 0.000000 0.146428
1.093980 -0.110885 0.287744 0.989563 0.000000 0.144047
0.426058 -0.213941 1.426686 -0.999969 0.000000 0.000000
0.426058 0.238026 1.426685 -1.000000 0.000000 0.000000
0.760019 0.120860 1.426685 0.331034 0.943602 0.000000
0.760019 -0.162413 1.426686 0.562609 0.000000 0.826685
0.760019 0.120860 1.426685 0.519730 0.000000 0.854305
0.426058 -0.213941 1.426686 0.152470 -0.988281 0.000000
0.426058 -0.213941 0.287743 0.152470 -0.988281 0.000000
0.426058 0.238026 1.426685 0.331034 0.943602 0.000000
0.426058 0.238026 0.287743 0.331034 0.943602 0.000000
0.426058 0.238026 1.426685 0.000000 0.000000 1.000000
0.426058 -0.213941 1.426686 0.000000 0.000000 1.000000
0.426058 -0.213941 -0.851199 0.000000 0.000000 -1.000000
0.426058 0.238026 -0.851200 0.000000 0.000000 -1.000000
0.426058 0.238026 -0.851200 0.331034 0.943602 0.000000
0.426058 -0.213941 -0.851199 0.152470 -0.988281 0.000000
-0.760019 -0.162413 0.287743 -0.152470 -0.988281 0.000000
-1.093980 -0.110885 0.287744 -0.152470 -0.988281 0.000000
-1.093980 -0.110885 -0.851199 -0.152470 -0.988281 0.000000
-0.760019 -0.162413 -0.851199 -0.152470 -0.988281 0.000000
-0.760019 0.120860 0.287743 -0.331034 0.943602 0.000000
-0.760019 0.120860 -0.851200 -0.331034 0.943602 0.000000
-1.093980 0.003695 -0.851199 -0.331034 0.943602 0.000000
-1.093980 0.003695 0.287743 -0.331034 0.943602 0.000000
-0.426058 -0.213941 0.287743 1.000000 0.000000 0.000000
-0.426058 -0.213941 -0.851199 1.000000 0.000000 0.000000
-0.426058 0.238026 -0.851200 1.000000 0.000000 0.000000
-0.426058 0.238026 0.287743 1.000000 0.000000 0.000000
-0.760019 -0.162413 -0.851199 0.000000 0.000000 -1.000000
-1.093980 -0.110885 -0.851199 0.000000 0.000000 -1.000000
-1.093980 0.003695 -0.851199 0.000000 0.000000 -0.999969
-0.760019 0.120860 -0.851200 0.000000 0.000000 -1.000000
-0.760019 -0.162413 1.426686 -0.152470 -0.988281 0.000000
-1.093980 -0.110885 -0.851199 -1.000000 0.000000 0.000000
-1.093980 -0.110885 0.287744 -0.989563 0.000000 0.144047
-1.093980 0.003695 0.287743 -0.989196 0.000000 0.146428
-1.093980 0.003695 -0.851199 -1.000000 0.000000 0.000000
-0.426058 -0.213941 1.426686 0.999969 0.000000 0.000000
-0.426058 0.238026 1.426685 1.000000 0.000000 0.000000
-0.760019 0.120860 1.426685 -0.331034 0.943602 0.000000
-0.760019 -0.162413 1.426686 -0.562609 0.000000 0.826685
-0.760019 0.120860 1.426685 -0.519730 0.000000 0.854305
-0.426058 -0.213941 1.426686 -0.152470 -0.988281 0.000000
-0.426058 -0.213941 0.287743 -0.152470 -0.988281 0.000000
-0.426058 0.238026 1.426685 -0.331034 0.943602 0.000000
-0.426058 0.238026 0.287743 -0.331034 0.943602 0.000000
-0.426058 0.238026 1.426685 0.000000 0.000000 1.000000
-0.426058 -0.213941 1.426686 0.000000 0.000000 1.000000
-0.426058 -0.213941 -0.851199 0.000000 0.000000 -1.000000
-0.426058 0.238026 -0.851200 0.000000 0.000000 -1.000000
-0.426058 0.238026 -0.851200 -0.331034 0.943602 0.000000
-0.426058 -0.213941 -0.851199 -0.152470 -0.988281 0.000000
4 0 1 2 3
4 4 5 6 7
4 8 9 10 11
4 12 13 14 15
4 16 17 18 19
4 4 20 21 5
4 22 23 24 25
4 26 27 28 29
4 22 26 29 23
4 24 28 27 25
4 30 31 32 33
4 34 35 36 37
4 38 39 40 41
4 34 38 41 35
4 36 40 39 37
4 42 43 44 45
4 46 47 48 49
4 50 51 52 53
4 46 50 53 47
4 48 52 51 49
4 54 55 56 57
4 58 59 60 61
4 62 63 64 65
4 66 67 68 69
4 70 71 72 73
3 61 74 58
4 75 76 77 78
4 79 80 67 66
3 81 63 62
4 82 78 77 83
4 84 85 58 74
4 86 81 62 87
4 88 89 82 83
4 90 91 71 70
4 87 62 65 92
4 85 93 59 58
4 94 95 96 97
4 98 99 100 101
4 102 103 104 105
4 106 107 108 109
3 95 94 110
4 111 112 113 114
4 115 102 105 116
3 117 98 101
4 118 119 113 112
4 120 110 94 121
4 122 123 98 117
4 124 119 118 125
4 126 106 109 127
4 123 128 99 98
4 121 94 97 129
